<svg xmlns="http://www.w3.org/2000/svg" xmlns:xlink="http://www.w3.org/1999/xlink" width="500" zoomAndPan="magnify" viewBox="0 0 375 374.999991" height="500" preserveAspectRatio="xMidYMid meet" version="1.0"><path fill="#ffffff" d="M 197.964844 240.566406 C 189.828125 248.699219 178.570312 253.746094 166.148438 253.746094 C 153.722656 253.746094 142.464844 248.71875 134.3125 240.566406 C 126.175781 232.410156 121.128906 221.171875 121.128906 208.730469 C 121.128906 196.304688 126.160156 185.046875 134.3125 176.910156 C 142.445312 168.777344 153.707031 163.730469 166.148438 163.730469 C 175.394531 163.730469 183.988281 166.519531 191.152344 171.300781 L 220.660156 141.792969 C 214.183594 136.5 206.964844 132.160156 199.199219 128.929688 C 189.070312 124.730469 177.898438 122.417969 166.164062 122.417969 C 142.324219 122.417969 120.742188 132.089844 105.140625 147.6875 C 89.523438 163.304688 79.851562 184.886719 79.851562 208.710938 C 79.851562 232.554688 89.523438 254.136719 105.140625 269.734375 C 120.757812 285.351562 142.324219 295.023438 166.164062 295.023438 C 189.988281 295.023438 211.570312 285.351562 227.1875 269.734375 C 242.804688 254.117188 252.476562 232.554688 252.476562 208.710938 C 252.476562 204.8125 252.246094 201.140625 251.824219 197.71875 C 251.363281 194.082031 250.660156 190.5 249.757812 186.96875 C 248.542969 182.292969 251.363281 177.511719 256.042969 176.292969 C 260.71875 175.078125 265.5 177.898438 266.71875 182.578125 C 267.792969 186.757812 268.640625 191.082031 269.207031 195.53125 C 269.769531 200.03125 270.070312 204.441406 270.070312 208.730469 C 270.070312 237.421875 258.441406 263.382812 239.648438 282.195312 C 220.851562 300.988281 194.875 312.617188 166.199219 312.617188 C 137.507812 312.617188 111.546875 300.988281 92.734375 282.195312 C 73.941406 263.398438 62.3125 237.421875 62.3125 208.730469 C 62.3125 180.054688 73.941406 154.078125 92.734375 135.28125 C 111.53125 116.488281 137.507812 104.859375 166.199219 104.859375 C 180.210938 104.859375 193.625 107.664062 205.886719 112.746094 C 215.894531 116.894531 225.070312 122.523438 233.171875 129.335938 L 264.953125 97.554688 C 252.636719 86.578125 238.5 77.648438 223.09375 71.277344 C 205.605469 64.023438 186.386719 60.035156 166.199219 60.035156 C 125.136719 60.035156 87.953125 76.675781 61.042969 103.589844 C 34.128906 130.5 17.488281 167.683594 17.488281 208.746094 C 17.488281 249.8125 34.128906 286.992188 61.042969 313.90625 C 87.953125 340.816406 125.136719 357.457031 166.199219 357.457031 C 207.265625 357.457031 244.445312 340.816406 271.359375 313.90625 C 298.269531 286.992188 314.910156 249.8125 314.910156 208.746094 C 314.910156 196.589844 313.480469 184.851562 310.800781 173.71875 C 308.011719 162.160156 303.863281 151.113281 298.535156 140.769531 C 296.3125 136.464844 298.007812 131.171875 302.3125 128.964844 C 306.617188 126.742188 311.910156 128.433594 314.117188 132.742188 C 320.066406 144.28125 324.707031 156.636719 327.828125 169.605469 C 330.882812 182.242188 332.507812 195.351562 332.507812 208.765625 C 332.507812 254.683594 313.886719 296.257812 283.800781 326.347656 C 253.695312 356.433594 212.136719 375.054688 166.21875 375.054688 C 120.300781 375.054688 78.722656 356.433594 48.636719 326.347656 C 18.546875 296.242188 -0.0703125 254.683594 -0.0703125 208.765625 C -0.0703125 162.847656 18.546875 121.269531 48.636719 91.183594 C 78.742188 61.09375 120.300781 42.476562 166.21875 42.476562 C 188.683594 42.476562 210.160156 46.957031 229.78125 55.09375 C 246.105469 61.851562 261.105469 71.117188 274.289062 82.375 L 272.152344 46.640625 C 271.871094 43.921875 272.859375 41.117188 275.046875 39.160156 L 316.570312 2.257812 C 317.558594 1.375 318.757812 0.707031 320.136719 0.335938 C 324.8125 -0.917969 329.628906 1.871094 330.882812 6.546875 L 338.824219 36.160156 L 368.222656 44.03125 C 369.582031 44.363281 370.886719 45.019531 372.019531 46.007812 C 375.636719 49.234375 375.953125 54.777344 372.742188 58.394531 L 335.839844 99.917969 C 334.113281 101.839844 331.554688 103.007812 328.78125 102.828125 L 287.066406 100.339844 L 283.835938 103.570312 L 239.699219 147.6875 L 203.683594 183.722656 C 208.464844 190.871094 211.253906 199.480469 211.253906 208.730469 C 211.253906 221.152344 206.222656 232.410156 198.070312 240.566406 Z M 197.964844 240.566406 " fill-opacity="1" fill-rule="evenodd"/></svg>