<svg xmlns="http://www.w3.org/2000/svg" xmlns:xlink="http://www.w3.org/1999/xlink" width="500" zoomAndPan="magnify" viewBox="0 0 375 374.999991" height="500" preserveAspectRatio="xMidYMid meet" version="1.0"><defs><clipPath id="ebb5a92486"><path d="M 27.421875 183 L 75 183 L 75 204 L 27.421875 204 Z M 27.421875 183 " clip-rule="nonzero"/></clipPath><clipPath id="abe83335b3"><path d="M 300 186 L 347.671875 186 L 347.671875 207 L 300 207 Z M 300 186 " clip-rule="nonzero"/></clipPath></defs><path fill="#ffffff" d="M 189.628906 47.773438 C 189.242188 47.773438 188.855469 47.734375 188.476562 47.660156 C 188.09375 47.585938 187.726562 47.472656 187.367188 47.324219 C 187.007812 47.175781 186.664062 46.992188 186.34375 46.777344 C 186.019531 46.5625 185.71875 46.316406 185.445312 46.039062 C 185.171875 45.765625 184.925781 45.464844 184.710938 45.144531 C 184.492188 44.820312 184.3125 44.480469 184.164062 44.121094 C 184.015625 43.761719 183.902344 43.390625 183.824219 43.011719 C 183.75 42.628906 183.710938 42.242188 183.710938 41.855469 L 183.710938 5.996094 C 183.710938 5.609375 183.75 5.222656 183.824219 4.84375 C 183.902344 4.460938 184.015625 4.089844 184.164062 3.730469 C 184.3125 3.371094 184.492188 3.03125 184.710938 2.707031 C 184.925781 2.386719 185.171875 2.085938 185.445312 1.8125 C 185.71875 1.535156 186.019531 1.292969 186.34375 1.074219 C 186.664062 0.859375 187.007812 0.675781 187.367188 0.527344 C 187.726562 0.378906 188.09375 0.265625 188.476562 0.191406 C 188.855469 0.117188 189.242188 0.078125 189.628906 0.078125 C 190.019531 0.078125 190.402344 0.117188 190.785156 0.191406 C 191.167969 0.265625 191.535156 0.378906 191.894531 0.527344 C 192.253906 0.675781 192.597656 0.859375 192.917969 1.074219 C 193.242188 1.292969 193.539062 1.535156 193.816406 1.8125 C 194.089844 2.085938 194.335938 2.386719 194.550781 2.707031 C 194.769531 3.03125 194.949219 3.371094 195.097656 3.730469 C 195.246094 4.089844 195.359375 4.460938 195.433594 4.84375 C 195.511719 5.222656 195.550781 5.609375 195.550781 5.996094 L 195.550781 41.855469 C 195.550781 42.242188 195.511719 42.628906 195.433594 43.011719 C 195.359375 43.390625 195.246094 43.761719 195.097656 44.121094 C 194.949219 44.480469 194.769531 44.820312 194.550781 45.144531 C 194.335938 45.464844 194.089844 45.765625 193.816406 46.039062 C 193.539062 46.316406 193.242188 46.5625 192.917969 46.777344 C 192.597656 46.992188 192.253906 47.175781 191.894531 47.324219 C 191.535156 47.472656 191.167969 47.585938 190.785156 47.660156 C 190.402344 47.734375 190.019531 47.773438 189.628906 47.773438 Z M 189.628906 47.773438 " fill-opacity="1" fill-rule="nonzero"/><path fill="#ffffff" d="M 93.632812 92.367188 C 92.253906 92.371094 91.023438 91.941406 89.945312 91.082031 L 61.867188 68.726562 C 61.566406 68.484375 61.289062 68.214844 61.035156 67.917969 C 60.785156 67.617188 60.566406 67.300781 60.378906 66.960938 C 60.191406 66.621094 60.039062 66.265625 59.921875 65.894531 C 59.804688 65.523438 59.722656 65.144531 59.679688 64.757812 C 59.636719 64.371094 59.632812 63.984375 59.664062 63.597656 C 59.699219 63.210938 59.769531 62.832031 59.875 62.457031 C 59.984375 62.085938 60.125 61.726562 60.304688 61.378906 C 60.484375 61.035156 60.695312 60.710938 60.9375 60.40625 C 61.179688 60.101562 61.449219 59.824219 61.746094 59.574219 C 62.042969 59.324219 62.359375 59.105469 62.699219 58.917969 C 63.042969 58.730469 63.394531 58.578125 63.765625 58.457031 C 64.136719 58.339844 64.515625 58.257812 64.902344 58.214844 C 65.289062 58.171875 65.675781 58.167969 66.0625 58.199219 C 66.449219 58.230469 66.828125 58.300781 67.203125 58.410156 C 67.574219 58.515625 67.933594 58.660156 68.28125 58.839844 C 68.625 59.015625 68.949219 59.226562 69.253906 59.46875 L 97.285156 81.824219 C 97.761719 82.207031 98.171875 82.652344 98.511719 83.160156 C 98.851562 83.667969 99.105469 84.21875 99.277344 84.804688 C 99.445312 85.394531 99.523438 85.992188 99.507812 86.605469 C 99.492188 87.214844 99.382812 87.808594 99.183594 88.386719 C 98.984375 88.964844 98.699219 89.5 98.335938 89.992188 C 97.96875 90.480469 97.535156 90.902344 97.039062 91.261719 C 96.542969 91.617188 96.003906 91.890625 95.421875 92.078125 C 94.839844 92.269531 94.242188 92.363281 93.632812 92.367188 Z M 93.632812 92.367188 " fill-opacity="1" fill-rule="nonzero"/><g clip-path="url(#ebb5a92486)"><path fill="#ffffff" d="M 33.65625 203.28125 C 33.296875 203.28125 32.9375 203.25 32.585938 203.183594 C 32.230469 203.117188 31.886719 203.019531 31.546875 202.890625 C 31.210938 202.761719 30.890625 202.601562 30.582031 202.414062 C 30.277344 202.226562 29.988281 202.011719 29.71875 201.773438 C 29.453125 201.53125 29.207031 201.269531 28.988281 200.984375 C 28.765625 200.699219 28.574219 200.394531 28.410156 200.074219 C 28.242188 199.753906 28.109375 199.421875 28.003906 199.078125 C 27.902344 198.734375 27.828125 198.382812 27.789062 198.023438 C 27.746094 197.664062 27.742188 197.308594 27.765625 196.949219 C 27.792969 196.589844 27.847656 196.234375 27.9375 195.886719 C 28.027344 195.535156 28.148438 195.199219 28.300781 194.871094 C 28.453125 194.546875 28.632812 194.234375 28.84375 193.941406 C 29.050781 193.648438 29.285156 193.375 29.542969 193.121094 C 29.800781 192.871094 30.078125 192.644531 30.378906 192.445312 C 30.675781 192.246094 30.992188 192.074219 31.324219 191.929688 C 31.652344 191.789062 31.996094 191.675781 32.347656 191.59375 L 67.273438 183.554688 C 67.65625 183.457031 68.046875 183.398438 68.441406 183.375 C 68.835938 183.355469 69.226562 183.375 69.621094 183.433594 C 70.011719 183.492188 70.390625 183.589844 70.761719 183.722656 C 71.136719 183.859375 71.488281 184.027344 71.828125 184.234375 C 72.164062 184.441406 72.480469 184.679688 72.769531 184.945312 C 73.058594 185.214844 73.320312 185.511719 73.550781 185.832031 C 73.78125 186.152344 73.976562 186.492188 74.140625 186.855469 C 74.300781 187.214844 74.425781 187.585938 74.515625 187.972656 C 74.601562 188.359375 74.652344 188.75 74.660156 189.144531 C 74.671875 189.539062 74.640625 189.929688 74.574219 190.320312 C 74.503906 190.710938 74.394531 191.089844 74.25 191.457031 C 74.105469 191.824219 73.925781 192.175781 73.710938 192.507812 C 73.496094 192.839844 73.25 193.144531 72.972656 193.425781 C 72.695312 193.710938 72.394531 193.960938 72.066406 194.183594 C 71.742188 194.40625 71.394531 194.59375 71.03125 194.746094 C 70.664062 194.898438 70.289062 195.015625 69.902344 195.089844 L 34.949219 203.09375 C 34.527344 203.203125 34.09375 203.265625 33.65625 203.28125 Z M 33.65625 203.28125 " fill-opacity="1" fill-rule="nonzero"/></g><g clip-path="url(#abe83335b3)"><path fill="#ffffff" d="M 341.421875 206.582031 C 340.976562 206.582031 340.535156 206.53125 340.097656 206.429688 L 305.144531 198.453125 C 304.757812 198.375 304.382812 198.261719 304.015625 198.109375 C 303.652344 197.957031 303.304688 197.769531 302.980469 197.546875 C 302.652344 197.324219 302.351562 197.070312 302.074219 196.789062 C 301.796875 196.507812 301.550781 196.199219 301.335938 195.867188 C 301.121094 195.535156 300.941406 195.1875 300.796875 194.820312 C 300.652344 194.449219 300.542969 194.070312 300.476562 193.683594 C 300.40625 193.292969 300.375 192.902344 300.386719 192.503906 C 300.394531 192.109375 300.445312 191.71875 300.53125 191.335938 C 300.621094 190.949219 300.746094 190.574219 300.90625 190.214844 C 301.070312 189.855469 301.265625 189.515625 301.496094 189.191406 C 301.726562 188.871094 301.988281 188.578125 302.277344 188.308594 C 302.570312 188.039062 302.882812 187.800781 303.21875 187.597656 C 303.558594 187.390625 303.914062 187.21875 304.285156 187.085938 C 304.65625 186.949219 305.035156 186.855469 305.429688 186.796875 C 305.820312 186.738281 306.210938 186.71875 306.605469 186.738281 C 307 186.757812 307.390625 186.816406 307.773438 186.917969 L 342.734375 194.894531 C 343.082031 194.976562 343.425781 195.085938 343.753906 195.230469 C 344.085938 195.371094 344.402344 195.542969 344.699219 195.746094 C 345 195.945312 345.277344 196.171875 345.539062 196.421875 C 345.796875 196.671875 346.027344 196.945312 346.238281 197.238281 C 346.445312 197.535156 346.625 197.84375 346.777344 198.171875 C 346.929688 198.496094 347.050781 198.835938 347.140625 199.183594 C 347.230469 199.53125 347.289062 199.886719 347.3125 200.246094 C 347.339844 200.605469 347.332031 200.964844 347.289062 201.320312 C 347.25 201.679688 347.179688 202.03125 347.074219 202.375 C 346.96875 202.722656 346.835938 203.054688 346.671875 203.375 C 346.503906 203.695312 346.3125 203.996094 346.09375 204.28125 C 345.871094 204.566406 345.628906 204.828125 345.359375 205.070312 C 345.089844 205.3125 344.804688 205.523438 344.496094 205.714844 C 344.1875 205.902344 343.867188 206.058594 343.53125 206.1875 C 343.195312 206.316406 342.847656 206.414062 342.496094 206.480469 C 342.140625 206.546875 341.78125 206.582031 341.421875 206.582031 Z M 341.421875 206.582031 " fill-opacity="1" fill-rule="nonzero"/></g><path fill="#ffffff" d="M 284.382812 95.050781 C 283.769531 95.054688 283.164062 94.964844 282.578125 94.78125 C 281.992188 94.597656 281.445312 94.332031 280.941406 93.976562 C 280.4375 93.621094 280 93.199219 279.628906 92.710938 C 279.253906 92.21875 278.964844 91.683594 278.761719 91.101562 C 278.554688 90.523438 278.445312 89.925781 278.425781 89.308594 C 278.40625 88.695312 278.484375 88.089844 278.652344 87.5 C 278.824219 86.90625 279.082031 86.355469 279.421875 85.84375 C 279.765625 85.332031 280.175781 84.882812 280.660156 84.5 L 308.6875 62.144531 C 308.992188 61.902344 309.316406 61.691406 309.664062 61.511719 C 310.007812 61.335938 310.367188 61.191406 310.742188 61.085938 C 311.113281 60.976562 311.496094 60.90625 311.882812 60.875 C 312.269531 60.839844 312.65625 60.847656 313.042969 60.890625 C 313.429688 60.933594 313.808594 61.015625 314.175781 61.132812 C 314.546875 61.25 314.902344 61.402344 315.242188 61.589844 C 315.582031 61.78125 315.902344 62 316.199219 62.25 C 316.496094 62.5 316.765625 62.777344 317.007812 63.082031 C 317.25 63.386719 317.460938 63.710938 317.640625 64.054688 C 317.816406 64.398438 317.960938 64.757812 318.070312 65.132812 C 318.175781 65.507812 318.246094 65.886719 318.28125 66.273438 C 318.3125 66.660156 318.308594 67.046875 318.265625 67.433594 C 318.222656 67.820312 318.140625 68.199219 318.023438 68.570312 C 317.90625 68.941406 317.753906 69.292969 317.5625 69.636719 C 317.375 69.976562 317.15625 70.292969 316.90625 70.589844 C 316.65625 70.886719 316.378906 71.160156 316.074219 71.402344 L 288.035156 93.757812 C 286.96875 94.613281 285.75 95.042969 284.382812 95.050781 Z M 284.382812 95.050781 " fill-opacity="1" fill-rule="nonzero"/><path fill="#ffffff" d="M 152.027344 295.867188 C 151.21875 295.867188 150.441406 295.707031 149.699219 295.382812 C 148.414062 294.835938 147.230469 294.113281 146.15625 293.21875 C 145.082031 292.324219 144.15625 291.292969 143.386719 290.125 C 142.613281 288.957031 142.027344 287.703125 141.625 286.363281 C 141.21875 285.023438 141.019531 283.652344 141.019531 282.253906 C 141.03125 280.175781 140.9375 278.101562 140.730469 276.03125 C 140.527344 273.964844 140.210938 271.914062 139.789062 269.878906 C 139.367188 267.84375 138.839844 265.835938 138.203125 263.855469 C 137.570312 261.875 136.832031 259.9375 135.992188 258.035156 C 135.152344 256.132812 134.214844 254.28125 133.179688 252.480469 C 132.144531 250.675781 131.015625 248.933594 129.796875 247.25 C 128.578125 245.566406 127.273438 243.953125 125.882812 242.410156 C 124.492188 240.863281 123.023438 239.394531 121.480469 238.003906 C 119.605469 236.339844 117.792969 234.609375 116.046875 232.808594 C 114.300781 231.007812 112.625 229.144531 111.023438 227.21875 C 109.417969 225.289062 107.886719 223.304688 106.433594 221.261719 C 104.976562 219.21875 103.601562 217.125 102.304688 214.976562 C 101.007812 212.832031 99.792969 210.640625 98.664062 208.402344 C 97.53125 206.164062 96.488281 203.882812 95.527344 201.566406 C 94.570312 199.25 93.699219 196.898438 92.917969 194.515625 C 92.136719 192.132812 91.445312 189.726562 90.847656 187.289062 C 90.246094 184.855469 89.738281 182.398438 89.324219 179.925781 C 88.910156 177.453125 88.589844 174.96875 88.363281 172.46875 C 88.136719 169.972656 88.007812 167.46875 87.96875 164.960938 C 87.933594 162.453125 87.988281 159.949219 88.140625 157.445312 C 88.292969 154.941406 88.539062 152.449219 88.878906 149.964844 C 89.21875 147.480469 89.652344 145.011719 90.179688 142.558594 C 90.707031 140.105469 91.324219 137.679688 92.035156 135.273438 C 92.746094 132.867188 93.542969 130.492188 94.433594 128.148438 C 95.324219 125.804688 96.300781 123.496094 97.363281 121.226562 C 98.429688 118.953125 99.578125 116.726562 100.808594 114.542969 C 102.039062 112.359375 103.351562 110.222656 104.746094 108.136719 C 106.140625 106.050781 107.609375 104.023438 109.15625 102.046875 C 110.703125 100.074219 112.320312 98.160156 114.011719 96.308594 C 115.703125 94.457031 117.464844 92.671875 119.289062 90.953125 C 121.113281 89.234375 123.003906 87.585938 124.953125 86.011719 C 126.90625 84.433594 128.910156 82.933594 130.976562 81.507812 C 133.039062 80.082031 135.152344 78.738281 137.320312 77.472656 C 139.484375 76.207031 141.695312 75.027344 143.949219 73.929688 C 146.203125 72.832031 148.496094 71.820312 150.828125 70.894531 C 153.160156 69.96875 155.523438 69.132812 157.914062 68.386719 C 160.308594 67.640625 162.730469 66.984375 165.171875 66.421875 C 167.617188 65.859375 170.078125 65.386719 172.558594 65.007812 C 175.035156 64.632812 177.527344 64.347656 180.027344 64.15625 C 182.527344 63.96875 185.03125 63.875 187.539062 63.871094 L 188.398438 63.871094 C 190.890625 63.894531 193.378906 64.007812 195.859375 64.214844 C 198.34375 64.421875 200.816406 64.722656 203.273438 65.117188 C 205.734375 65.507812 208.175781 65.992188 210.601562 66.570312 C 213.023438 67.144531 215.421875 67.8125 217.796875 68.566406 C 220.171875 69.324219 222.511719 70.167969 224.824219 71.101562 C 227.132812 72.03125 229.40625 73.050781 231.640625 74.152344 C 233.875 75.253906 236.0625 76.441406 238.207031 77.707031 C 240.355469 78.972656 242.449219 80.320312 244.492188 81.742188 C 246.539062 83.167969 248.523438 84.664062 250.457031 86.238281 C 252.390625 87.8125 254.257812 89.453125 256.066406 91.167969 C 257.875 92.882812 259.617188 94.660156 261.292969 96.503906 C 262.96875 98.347656 264.570312 100.253906 266.101562 102.21875 C 267.636719 104.183594 269.089844 106.203125 270.472656 108.277344 C 271.851562 110.347656 273.152344 112.472656 274.375 114.644531 C 275.597656 116.816406 276.734375 119.027344 277.789062 121.285156 C 278.84375 123.542969 279.8125 125.835938 280.695312 128.164062 C 281.578125 130.496094 282.375 132.855469 283.078125 135.242188 C 283.785156 137.632812 284.402344 140.046875 284.925781 142.480469 C 285.449219 144.917969 285.882812 147.367188 286.226562 149.835938 C 286.566406 152.304688 286.8125 154.78125 286.96875 157.265625 C 287.125 159.753906 287.1875 162.242188 287.152344 164.734375 C 287.121094 167.226562 286.996094 169.710938 286.777344 172.191406 C 286.5625 174.675781 286.25 177.144531 285.847656 179.601562 C 285.441406 182.0625 284.949219 184.5 284.359375 186.921875 C 283.773438 189.34375 283.097656 191.738281 282.332031 194.109375 C 281.566406 196.480469 280.710938 198.820312 279.769531 201.125 C 278.828125 203.433594 277.800781 205.699219 276.6875 207.929688 C 275.574219 210.160156 274.382812 212.34375 273.105469 214.480469 C 271.828125 216.621094 270.472656 218.710938 269.042969 220.75 C 267.609375 222.785156 266.101562 224.769531 264.519531 226.695312 C 262.9375 228.617188 261.285156 230.480469 259.566406 232.28125 C 257.84375 234.082031 256.058594 235.816406 254.207031 237.484375 C 247.835938 243.195312 242.878906 249.945312 239.339844 257.734375 C 237.59375 261.5625 236.273438 265.535156 235.378906 269.648438 C 234.488281 273.761719 234.042969 277.925781 234.042969 282.132812 C 234.042969 283.539062 233.84375 284.914062 233.4375 286.257812 C 233.035156 287.601562 232.449219 288.859375 231.679688 290.035156 C 230.90625 291.207031 229.984375 292.246094 228.910156 293.148438 C 227.832031 294.050781 226.652344 294.78125 225.363281 295.335938 C 225.007812 295.492188 224.636719 295.609375 224.257812 295.695312 C 223.878906 295.777344 223.492188 295.820312 223.105469 295.828125 C 222.714844 295.835938 222.332031 295.804688 221.949219 295.738281 C 221.566406 295.667969 221.191406 295.5625 220.832031 295.421875 C 220.46875 295.277344 220.125 295.101562 219.796875 294.890625 C 219.46875 294.683594 219.164062 294.441406 218.886719 294.171875 C 218.605469 293.902344 218.355469 293.609375 218.132812 293.289062 C 217.910156 292.96875 217.722656 292.632812 217.566406 292.273438 C 217.410156 291.917969 217.292969 291.550781 217.207031 291.171875 C 217.125 290.789062 217.082031 290.40625 217.074219 290.015625 C 217.066406 289.628906 217.097656 289.242188 217.167969 288.859375 C 217.234375 288.476562 217.339844 288.105469 217.484375 287.742188 C 217.625 287.378906 217.800781 287.035156 218.011719 286.707031 C 218.222656 286.382812 218.460938 286.078125 218.730469 285.796875 C 219 285.515625 219.296875 285.265625 219.613281 285.042969 C 219.933594 284.820312 220.273438 284.632812 220.628906 284.476562 C 221.101562 284.277344 221.476562 283.957031 221.757812 283.527344 C 222.035156 283.097656 222.171875 282.625 222.167969 282.109375 C 222.175781 277.058594 222.71875 272.066406 223.796875 267.132812 C 224.878906 262.195312 226.472656 257.433594 228.574219 252.839844 C 230.660156 248.25 233.195312 243.917969 236.179688 239.851562 C 239.164062 235.78125 242.53125 232.0625 246.285156 228.695312 C 248.613281 226.597656 250.820312 224.382812 252.910156 222.046875 C 255.003906 219.714844 256.960938 217.273438 258.792969 214.730469 C 260.621094 212.1875 262.3125 209.554688 263.859375 206.832031 C 265.40625 204.105469 266.804688 201.308594 268.054688 198.433594 C 269.300781 195.558594 270.390625 192.625 271.328125 189.636719 C 272.261719 186.644531 273.035156 183.613281 273.644531 180.539062 C 274.253906 177.46875 274.695312 174.371094 274.976562 171.25 C 275.253906 168.128906 275.363281 165 275.308594 161.867188 C 274.464844 114.757812 235.433594 76.105469 188.304688 75.71875 L 187.539062 75.71875 C 185.328125 75.71875 183.121094 75.800781 180.917969 75.96875 C 178.714844 76.132812 176.519531 76.382812 174.335938 76.714844 C 172.148438 77.046875 169.980469 77.460938 167.824219 77.957031 C 165.671875 78.453125 163.539062 79.03125 161.429688 79.6875 C 159.320312 80.347656 157.234375 81.082031 155.179688 81.898438 C 153.125 82.710938 151.105469 83.601562 149.117188 84.570312 C 147.132812 85.539062 145.183594 86.578125 143.273438 87.691406 C 141.367188 88.808594 139.5 89.992188 137.683594 91.25 C 135.863281 92.503906 134.09375 93.824219 132.375 95.214844 C 130.65625 96.605469 128.992188 98.054688 127.382812 99.570312 C 125.773438 101.085938 124.222656 102.660156 122.730469 104.292969 C 121.242188 105.921875 119.8125 107.609375 118.449219 109.347656 C 117.085938 111.089844 115.792969 112.878906 114.5625 114.714844 C 113.335938 116.554688 112.179688 118.433594 111.09375 120.359375 C 110.007812 122.285156 108.996094 124.25 108.054688 126.25 C 107.117188 128.25 106.257812 130.285156 105.472656 132.351562 C 104.691406 134.417969 103.984375 136.511719 103.359375 138.632812 C 102.734375 140.753906 102.1875 142.894531 101.726562 145.054688 C 101.261719 147.214844 100.878906 149.390625 100.578125 151.582031 C 100.28125 153.769531 100.0625 155.96875 99.929688 158.175781 C 99.796875 160.382812 99.746094 162.589844 99.777344 164.800781 C 99.8125 167.007812 99.929688 169.214844 100.128906 171.417969 C 100.328125 173.617188 100.613281 175.808594 100.976562 177.988281 C 101.34375 180.167969 101.789062 182.332031 102.316406 184.476562 C 102.847656 186.625 103.457031 188.746094 104.144531 190.847656 C 104.835938 192.945312 105.601562 195.019531 106.449219 197.058594 C 107.292969 199.101562 108.214844 201.109375 109.214844 203.082031 C 110.210938 205.054688 111.28125 206.984375 112.425781 208.878906 C 113.566406 210.769531 114.78125 212.613281 116.0625 214.414062 C 117.347656 216.214844 118.695312 217.964844 120.109375 219.660156 C 121.527344 221.359375 123.003906 223.003906 124.542969 224.589844 C 126.082031 226.175781 127.675781 227.699219 129.332031 229.167969 C 131.191406 230.832031 132.953125 232.59375 134.625 234.445312 C 136.296875 236.300781 137.867188 238.234375 139.335938 240.253906 C 140.800781 242.273438 142.160156 244.363281 143.40625 246.527344 C 144.652344 248.6875 145.78125 250.910156 146.792969 253.191406 C 147.804688 255.472656 148.691406 257.800781 149.457031 260.175781 C 150.222656 262.550781 150.859375 264.960938 151.371094 267.402344 C 151.882812 269.847656 152.265625 272.308594 152.515625 274.792969 C 152.765625 277.277344 152.882812 279.765625 152.871094 282.261719 C 152.875 282.75 153.007812 283.203125 153.28125 283.613281 C 153.550781 284.023438 153.914062 284.324219 154.363281 284.515625 C 154.992188 284.785156 155.554688 285.152344 156.054688 285.617188 C 156.554688 286.082031 156.960938 286.617188 157.277344 287.222656 C 157.589844 287.828125 157.796875 288.46875 157.890625 289.144531 C 157.980469 289.824219 157.960938 290.496094 157.820312 291.164062 C 157.679688 291.832031 157.433594 292.457031 157.078125 293.039062 C 156.722656 293.621094 156.277344 294.128906 155.75 294.554688 C 155.21875 294.984375 154.628906 295.3125 153.984375 295.539062 C 153.34375 295.765625 152.679688 295.875 151.996094 295.875 Z M 152.027344 295.867188 " fill-opacity="1" fill-rule="nonzero"/><path fill="#ffffff" d="M 200.90625 285.921875 L 200.371094 285.921875 C 199.984375 285.886719 199.605469 285.816406 199.230469 285.707031 C 198.859375 285.597656 198.5 285.453125 198.15625 285.269531 C 197.8125 285.089844 197.488281 284.878906 197.183594 284.636719 C 196.882812 284.390625 196.605469 284.121094 196.359375 283.820312 C 196.109375 283.523438 195.890625 283.203125 195.703125 282.863281 C 195.519531 282.523438 195.367188 282.164062 195.25 281.792969 C 195.136719 281.421875 195.054688 281.046875 195.015625 280.660156 C 194.972656 280.273438 194.96875 279.886719 195.003906 279.5 L 200.164062 222.277344 C 200.164062 222.238281 200.164062 222.199219 200.164062 222.160156 C 200.628906 217.882812 201.15625 213.894531 201.742188 210.195312 C 200.953125 209.941406 200.164062 209.675781 199.375 209.367188 C 194.4375 207.484375 189.761719 205.082031 185.355469 202.164062 C 181.125 205.375 176.464844 207.742188 171.378906 209.265625 C 172.957031 216.257812 174.535156 224.789062 176.003906 235.203125 C 179.207031 258.089844 180.367188 279.492188 180.375 279.703125 C 180.394531 280.09375 180.378906 280.480469 180.320312 280.863281 C 180.265625 281.25 180.171875 281.625 180.042969 281.992188 C 179.914062 282.359375 179.75 282.710938 179.550781 283.046875 C 179.351562 283.378906 179.125 283.691406 178.863281 283.980469 C 178.605469 284.269531 178.316406 284.53125 178.007812 284.765625 C 177.695312 285 177.363281 285.199219 177.011719 285.367188 C 176.660156 285.535156 176.296875 285.667969 175.917969 285.761719 C 175.542969 285.859375 175.160156 285.917969 174.769531 285.9375 C 174.382812 285.957031 173.996094 285.941406 173.609375 285.886719 C 173.226562 285.832031 172.847656 285.738281 172.480469 285.609375 C 172.113281 285.480469 171.765625 285.316406 171.429688 285.117188 C 171.09375 284.917969 170.78125 284.6875 170.492188 284.425781 C 170.203125 284.167969 169.941406 283.882812 169.710938 283.570312 C 169.476562 283.257812 169.277344 282.925781 169.109375 282.574219 C 168.941406 282.226562 168.808594 281.859375 168.710938 281.484375 C 168.617188 281.105469 168.558594 280.722656 168.535156 280.335938 C 168.535156 280.121094 167.390625 259.164062 164.25 236.765625 C 162.722656 225.835938 161.09375 217.210938 159.515625 210.402344 C 156.335938 210.109375 153.269531 209.347656 150.320312 208.121094 C 147.371094 206.894531 144.667969 205.253906 142.21875 203.203125 L 142.117188 203.101562 C 130.894531 191.878906 135.882812 181.976562 137.671875 179.207031 C 138.183594 178.382812 138.78125 177.628906 139.464844 176.941406 C 140.148438 176.253906 140.898438 175.652344 141.71875 175.136719 C 142.539062 174.621094 143.410156 174.203125 144.324219 173.886719 C 145.238281 173.570312 146.179688 173.359375 147.144531 173.257812 C 148.984375 173.105469 150.777344 173.332031 152.523438 173.933594 C 154.269531 174.539062 155.820312 175.46875 157.171875 176.726562 C 159.113281 178.402344 163.613281 182.253906 168.371094 197.820312 C 170.984375 197.007812 173.441406 195.867188 175.75 194.398438 C 173.238281 191.957031 170.964844 189.308594 168.929688 186.457031 C 167.296875 184.144531 166.101562 181.621094 165.339844 178.890625 C 162.59375 169.003906 163.273438 161.125 167.34375 155.492188 C 170.984375 150.457031 177.105469 147.601562 185.046875 147.214844 C 187.054688 147.085938 189.050781 147.210938 191.03125 147.589844 C 193.007812 147.96875 194.90625 148.589844 196.726562 149.453125 C 198.546875 150.316406 200.230469 151.390625 201.777344 152.683594 C 203.324219 153.976562 204.683594 155.441406 205.855469 157.078125 C 214.804688 169.878906 206.265625 184.359375 194.808594 194.128906 C 197.628906 195.765625 200.566406 197.164062 203.613281 198.328125 L 204.128906 198.523438 C 207.867188 183.53125 213.3125 175.125 220.792969 172.585938 C 227.894531 170.21875 234.210938 174.164062 236.789062 176.894531 C 237.347656 177.472656 237.769531 178.136719 238.050781 178.890625 C 243.199219 192.449219 238.921875 203.410156 226.316406 208.964844 C 222.234375 210.746094 217.964844 211.695312 213.511719 211.804688 C 212.949219 215.238281 212.421875 219.089844 211.933594 223.40625 L 206.808594 280.546875 C 206.777344 280.914062 206.710938 281.269531 206.609375 281.625 C 206.507812 281.976562 206.378906 282.316406 206.214844 282.644531 C 206.050781 282.96875 205.859375 283.28125 205.636719 283.574219 C 205.417969 283.863281 205.171875 284.132812 204.902344 284.378906 C 204.628906 284.625 204.339844 284.847656 204.027344 285.039062 C 203.714844 285.230469 203.390625 285.394531 203.046875 285.523438 C 202.707031 285.65625 202.355469 285.757812 201.996094 285.824219 C 201.636719 285.890625 201.273438 285.921875 200.90625 285.921875 Z M 225.238281 183.671875 C 224.996094 183.671875 224.761719 183.710938 224.535156 183.789062 C 223.523438 184.152344 219.59375 186.386719 216.027344 199.707031 C 217.921875 199.421875 219.75 198.898438 221.503906 198.128906 C 227.871094 195.320312 229.65625 191.320312 227.453125 184.492188 C 226.792969 184.007812 226.054688 183.734375 225.238281 183.671875 Z M 150.371094 194.640625 C 152.011719 196.035156 153.851562 197.074219 155.894531 197.75 C 153.140625 189.859375 150.742188 186.820312 149.398438 185.667969 C 149.109375 185.410156 148.5625 184.992188 148.207031 185.023438 C 147.9375 185.160156 147.726562 185.363281 147.578125 185.628906 C 146.96875 186.554688 145.148438 189.371094 150.371094 194.640625 Z M 186.222656 159.003906 L 185.574219 159.003906 C 182.632812 159.144531 178.742188 159.847656 176.894531 162.398438 C 175.046875 164.945312 174.992188 169.5 176.703125 175.6875 C 177.085938 177.09375 177.699219 178.394531 178.542969 179.585938 C 180.429688 182.230469 182.570312 184.65625 184.96875 186.851562 C 185.273438 186.585938 185.574219 186.324219 185.882812 186.0625 C 187.570312 184.707031 202.234375 172.570312 196.140625 163.816406 C 195.566406 163.050781 194.910156 162.363281 194.167969 161.75 C 193.429688 161.140625 192.628906 160.625 191.765625 160.207031 C 190.902344 159.789062 190.003906 159.476562 189.066406 159.273438 C 188.128906 159.070312 187.179688 158.980469 186.222656 159.003906 Z M 186.222656 159.003906 " fill-opacity="1" fill-rule="nonzero"/><path fill="#ffffff" d="M 208.734375 354.847656 L 166.34375 354.847656 C 165.648438 354.84375 164.957031 354.8125 164.265625 354.742188 C 163.574219 354.675781 162.890625 354.570312 162.210938 354.4375 C 161.53125 354.300781 160.855469 354.132812 160.191406 353.929688 C 159.527344 353.730469 158.875 353.496094 158.234375 353.230469 C 157.59375 352.964844 156.96875 352.667969 156.355469 352.339844 C 155.746094 352.011719 155.148438 351.65625 154.574219 351.269531 C 153.996094 350.886719 153.441406 350.472656 152.902344 350.03125 C 152.367188 349.59375 151.851562 349.125 151.363281 348.636719 C 150.871094 348.144531 150.40625 347.632812 149.964844 347.097656 C 149.523438 346.558594 149.113281 346.003906 148.726562 345.425781 C 148.339844 344.847656 147.984375 344.253906 147.65625 343.644531 C 147.328125 343.03125 147.03125 342.40625 146.765625 341.765625 C 146.5 341.125 146.265625 340.472656 146.066406 339.808594 C 145.863281 339.144531 145.695312 338.472656 145.558594 337.789062 C 145.421875 337.109375 145.320312 336.425781 145.25 335.734375 C 145.183594 335.042969 145.148438 334.351562 145.148438 333.65625 L 145.148438 295.273438 C 145.148438 294.578125 145.183594 293.886719 145.25 293.195312 C 145.320312 292.507812 145.421875 291.820312 145.558594 291.140625 C 145.695312 290.460938 145.863281 289.789062 146.066406 289.125 C 146.265625 288.460938 146.5 287.808594 146.765625 287.167969 C 147.03125 286.527344 147.328125 285.898438 147.65625 285.289062 C 147.984375 284.675781 148.339844 284.082031 148.726562 283.503906 C 149.113281 282.929688 149.523438 282.371094 149.964844 281.835938 C 150.40625 281.300781 150.871094 280.785156 151.363281 280.296875 C 151.851562 279.804688 152.367188 279.339844 152.902344 278.898438 C 153.441406 278.457031 153.996094 278.046875 154.574219 277.660156 C 155.148438 277.273438 155.746094 276.917969 156.355469 276.589844 C 156.96875 276.265625 157.59375 275.96875 158.234375 275.703125 C 158.875 275.4375 159.527344 275.203125 160.191406 275 C 160.855469 274.800781 161.53125 274.628906 162.210938 274.496094 C 162.890625 274.359375 163.574219 274.257812 164.265625 274.1875 C 164.957031 274.121094 165.648438 274.085938 166.34375 274.085938 L 208.734375 274.085938 C 209.429688 274.085938 210.121094 274.121094 210.8125 274.1875 C 211.503906 274.257812 212.1875 274.359375 212.867188 274.496094 C 213.550781 274.628906 214.222656 274.800781 214.886719 275 C 215.546875 275.203125 216.199219 275.4375 216.84375 275.703125 C 217.484375 275.96875 218.109375 276.265625 218.722656 276.589844 C 219.332031 276.917969 219.925781 277.273438 220.503906 277.660156 C 221.082031 278.046875 221.636719 278.460938 222.171875 278.898438 C 222.710938 279.339844 223.222656 279.804688 223.714844 280.296875 C 224.203125 280.785156 224.667969 281.300781 225.109375 281.835938 C 225.550781 282.371094 225.964844 282.929688 226.347656 283.503906 C 226.734375 284.082031 227.089844 284.675781 227.417969 285.289062 C 227.746094 285.898438 228.042969 286.527344 228.308594 287.167969 C 228.574219 287.808594 228.808594 288.460938 229.007812 289.125 C 229.210938 289.789062 229.378906 290.460938 229.515625 291.140625 C 229.652344 291.820312 229.753906 292.507812 229.820312 293.195312 C 229.890625 293.886719 229.925781 294.578125 229.925781 295.273438 L 229.925781 333.65625 C 229.925781 334.351562 229.890625 335.042969 229.820312 335.734375 C 229.753906 336.425781 229.652344 337.109375 229.515625 337.789062 C 229.378906 338.46875 229.210938 339.144531 229.007812 339.804688 C 228.808594 340.46875 228.574219 341.121094 228.308594 341.765625 C 228.042969 342.40625 227.746094 343.03125 227.417969 343.644531 C 227.089844 344.253906 226.734375 344.847656 226.347656 345.425781 C 225.964844 346.003906 225.550781 346.558594 225.109375 347.09375 C 224.667969 347.632812 224.203125 348.144531 223.714844 348.636719 C 223.222656 349.125 222.710938 349.589844 222.171875 350.03125 C 221.636719 350.472656 221.082031 350.886719 220.503906 351.269531 C 219.925781 351.65625 219.332031 352.011719 218.722656 352.339844 C 218.109375 352.667969 217.484375 352.964844 216.84375 353.230469 C 216.199219 353.496094 215.546875 353.730469 214.886719 353.929688 C 214.222656 354.132812 213.550781 354.300781 212.867188 354.4375 C 212.1875 354.570312 211.503906 354.675781 210.8125 354.742188 C 210.121094 354.8125 209.429688 354.84375 208.734375 354.847656 Z M 166.34375 285.921875 C 165.730469 285.921875 165.121094 285.984375 164.519531 286.101562 C 163.917969 286.222656 163.332031 286.402344 162.765625 286.636719 C 162.195312 286.871094 161.660156 287.160156 161.148438 287.5 C 160.636719 287.839844 160.164062 288.230469 159.730469 288.664062 C 159.296875 289.097656 158.90625 289.570312 158.566406 290.078125 C 158.226562 290.589844 157.9375 291.128906 157.699219 291.695312 C 157.464844 292.261719 157.285156 292.847656 157.167969 293.449219 C 157.046875 294.050781 156.984375 294.660156 156.984375 295.273438 L 156.984375 333.65625 C 156.984375 334.273438 157.046875 334.878906 157.167969 335.480469 C 157.285156 336.082031 157.464844 336.667969 157.699219 337.234375 C 157.9375 337.800781 158.226562 338.339844 158.566406 338.851562 C 158.90625 339.363281 159.296875 339.835938 159.730469 340.269531 C 160.164062 340.703125 160.636719 341.089844 161.148438 341.429688 C 161.660156 341.773438 162.195312 342.058594 162.765625 342.296875 C 163.332031 342.53125 163.917969 342.707031 164.519531 342.828125 C 165.121094 342.949219 165.730469 343.007812 166.34375 343.007812 L 208.734375 343.007812 C 209.351562 343.007812 209.957031 342.949219 210.558594 342.828125 C 211.160156 342.707031 211.746094 342.53125 212.3125 342.296875 C 212.878906 342.058594 213.417969 341.773438 213.929688 341.429688 C 214.441406 341.089844 214.910156 340.703125 215.347656 340.269531 C 215.78125 339.832031 216.167969 339.363281 216.507812 338.851562 C 216.851562 338.339844 217.136719 337.800781 217.375 337.234375 C 217.609375 336.667969 217.785156 336.082031 217.90625 335.480469 C 218.027344 334.878906 218.085938 334.273438 218.085938 333.65625 L 218.085938 295.273438 C 218.085938 294.660156 218.027344 294.050781 217.90625 293.449219 C 217.785156 292.847656 217.609375 292.261719 217.375 291.695312 C 217.136719 291.128906 216.851562 290.589844 216.507812 290.078125 C 216.167969 289.570312 215.78125 289.097656 215.347656 288.664062 C 214.910156 288.230469 214.441406 287.839844 213.929688 287.5 C 213.417969 287.160156 212.878906 286.871094 212.3125 286.636719 C 211.746094 286.402344 211.160156 286.222656 210.558594 286.101562 C 209.957031 285.984375 209.351562 285.921875 208.734375 285.921875 Z M 166.34375 285.921875 " fill-opacity="1" fill-rule="nonzero"/><path fill="#ffffff" d="M 151.058594 313.8125 C 150.6875 313.8125 150.320312 313.777344 149.957031 313.707031 C 149.589844 313.640625 149.238281 313.539062 148.890625 313.402344 C 148.546875 313.265625 148.21875 313.101562 147.902344 312.902344 C 147.589844 312.707031 147.296875 312.480469 147.023438 312.230469 C 146.753906 311.976562 146.507812 311.703125 146.289062 311.40625 C 146.066406 311.105469 145.878906 310.789062 145.71875 310.457031 C 145.554688 310.121094 145.429688 309.777344 145.332031 309.417969 C 145.238281 309.0625 145.175781 308.695312 145.148438 308.328125 C 145.121094 307.957031 145.128906 307.589844 145.171875 307.21875 C 145.210938 306.851562 145.289062 306.492188 145.398438 306.136719 C 145.507812 305.785156 145.648438 305.441406 145.824219 305.117188 C 145.996094 304.789062 146.199219 304.480469 146.433594 304.191406 C 146.664062 303.902344 146.921875 303.636719 147.203125 303.394531 C 147.484375 303.15625 147.785156 302.941406 148.105469 302.757812 C 148.429688 302.574219 148.765625 302.421875 149.113281 302.300781 C 149.464844 302.179688 149.824219 302.089844 150.1875 302.035156 L 223.128906 291.089844 C 223.515625 291.035156 223.902344 291.015625 224.289062 291.035156 C 224.675781 291.050781 225.058594 291.109375 225.4375 291.203125 C 225.8125 291.296875 226.175781 291.425781 226.527344 291.59375 C 226.878906 291.757812 227.210938 291.957031 227.523438 292.1875 C 227.835938 292.421875 228.121094 292.679688 228.382812 292.96875 C 228.644531 293.253906 228.875 293.566406 229.074219 293.898438 C 229.277344 294.230469 229.441406 294.582031 229.574219 294.945312 C 229.703125 295.3125 229.800781 295.6875 229.855469 296.070312 C 229.914062 296.457031 229.933594 296.839844 229.914062 297.230469 C 229.894531 297.617188 229.839844 298 229.746094 298.378906 C 229.652344 298.753906 229.523438 299.117188 229.355469 299.46875 C 229.191406 299.820312 228.992188 300.152344 228.761719 300.464844 C 228.53125 300.777344 228.273438 301.066406 227.984375 301.328125 C 227.699219 301.589844 227.386719 301.820312 227.054688 302.019531 C 226.722656 302.21875 226.371094 302.386719 226.007812 302.519531 C 225.640625 302.648438 225.265625 302.746094 224.882812 302.800781 L 151.941406 313.761719 C 151.648438 313.796875 151.351562 313.8125 151.058594 313.8125 Z M 151.058594 313.8125 " fill-opacity="1" fill-rule="nonzero"/><path fill="#ffffff" d="M 151.058594 337.902344 C 150.6875 337.902344 150.320312 337.871094 149.957031 337.800781 C 149.589844 337.730469 149.238281 337.628906 148.890625 337.496094 C 148.546875 337.359375 148.21875 337.195312 147.902344 336.996094 C 147.589844 336.800781 147.296875 336.574219 147.023438 336.324219 C 146.753906 336.070312 146.507812 335.796875 146.289062 335.496094 C 146.066406 335.199219 145.878906 334.882812 145.71875 334.550781 C 145.554688 334.214844 145.429688 333.871094 145.332031 333.511719 C 145.238281 333.152344 145.175781 332.789062 145.148438 332.417969 C 145.121094 332.050781 145.128906 331.679688 145.171875 331.3125 C 145.210938 330.945312 145.289062 330.585938 145.398438 330.230469 C 145.507812 329.875 145.648438 329.535156 145.824219 329.207031 C 145.996094 328.882812 146.199219 328.574219 146.433594 328.285156 C 146.664062 327.996094 146.921875 327.730469 147.203125 327.488281 C 147.484375 327.246094 147.785156 327.035156 148.105469 326.851562 C 148.429688 326.667969 148.765625 326.511719 149.113281 326.390625 C 149.464844 326.269531 149.824219 326.183594 150.1875 326.128906 L 223.128906 315.183594 C 223.515625 315.125 223.902344 315.105469 224.289062 315.125 C 224.675781 315.144531 225.058594 315.199219 225.4375 315.292969 C 225.816406 315.386719 226.179688 315.519531 226.53125 315.683594 C 226.882812 315.851562 227.214844 316.046875 227.527344 316.28125 C 227.839844 316.511719 228.125 316.769531 228.386719 317.058594 C 228.648438 317.34375 228.878906 317.65625 229.082031 317.988281 C 229.28125 318.320312 229.445312 318.671875 229.578125 319.039062 C 229.710938 319.402344 229.804688 319.777344 229.863281 320.164062 C 229.917969 320.546875 229.9375 320.933594 229.917969 321.324219 C 229.902344 321.710938 229.84375 322.09375 229.75 322.46875 C 229.65625 322.847656 229.527344 323.210938 229.359375 323.5625 C 229.195312 323.914062 228.996094 324.246094 228.765625 324.558594 C 228.535156 324.871094 228.273438 325.160156 227.988281 325.421875 C 227.699219 325.683594 227.390625 325.914062 227.054688 326.113281 C 226.722656 326.3125 226.375 326.480469 226.007812 326.609375 C 225.640625 326.742188 225.265625 326.835938 224.882812 326.894531 L 151.941406 337.839844 C 151.648438 337.878906 151.351562 337.902344 151.058594 337.902344 Z M 151.058594 337.902344 " fill-opacity="1" fill-rule="nonzero"/><path fill="#ffffff" d="M 193.640625 374.921875 L 181.4375 374.921875 C 180.765625 374.921875 180.09375 374.886719 179.425781 374.820312 C 178.753906 374.753906 178.089844 374.65625 177.429688 374.523438 C 176.769531 374.390625 176.117188 374.226562 175.472656 374.03125 C 174.828125 373.835938 174.195312 373.609375 173.574219 373.351562 C 172.953125 373.09375 172.34375 372.804688 171.75 372.488281 C 171.160156 372.171875 170.582031 371.824219 170.023438 371.449219 C 169.460938 371.078125 168.921875 370.675781 168.402344 370.25 C 167.882812 369.820312 167.382812 369.371094 166.90625 368.894531 C 166.429688 368.417969 165.980469 367.921875 165.550781 367.398438 C 165.125 366.878906 164.722656 366.339844 164.351562 365.78125 C 163.976562 365.222656 163.628906 364.644531 163.3125 364.050781 C 162.996094 363.457031 162.707031 362.851562 162.449219 362.230469 C 162.191406 361.605469 161.964844 360.972656 161.765625 360.332031 C 161.570312 359.6875 161.40625 359.035156 161.273438 358.375 C 161.140625 357.714844 161.042969 357.050781 160.976562 356.378906 C 160.910156 355.710938 160.875 355.039062 160.875 354.363281 L 160.875 348.925781 C 160.875 348.539062 160.914062 348.152344 160.988281 347.773438 C 161.0625 347.390625 161.175781 347.023438 161.324219 346.664062 C 161.472656 346.304688 161.65625 345.960938 161.871094 345.640625 C 162.085938 345.316406 162.332031 345.015625 162.609375 344.742188 C 162.882812 344.46875 163.179688 344.222656 163.503906 344.007812 C 163.828125 343.789062 164.167969 343.609375 164.527344 343.460938 C 164.886719 343.3125 165.257812 343.199219 165.636719 343.121094 C 166.019531 343.046875 166.402344 343.007812 166.792969 343.007812 L 208.285156 343.007812 C 208.675781 343.007812 209.058594 343.046875 209.441406 343.121094 C 209.820312 343.199219 210.191406 343.3125 210.550781 343.460938 C 210.910156 343.609375 211.25 343.789062 211.574219 344.007812 C 211.898438 344.222656 212.195312 344.46875 212.472656 344.742188 C 212.746094 345.015625 212.992188 345.316406 213.207031 345.640625 C 213.421875 345.960938 213.605469 346.304688 213.753906 346.664062 C 213.902344 347.023438 214.015625 347.390625 214.089844 347.773438 C 214.167969 348.152344 214.203125 348.539062 214.203125 348.925781 L 214.203125 354.363281 C 214.203125 355.039062 214.167969 355.710938 214.101562 356.378906 C 214.035156 357.050781 213.9375 357.714844 213.804688 358.375 C 213.671875 359.035156 213.507812 359.6875 213.3125 360.332031 C 213.117188 360.972656 212.890625 361.605469 212.628906 362.230469 C 212.371094 362.851562 212.085938 363.457031 211.765625 364.050781 C 211.449219 364.644531 211.101562 365.222656 210.730469 365.78125 C 210.355469 366.339844 209.953125 366.878906 209.527344 367.398438 C 209.097656 367.921875 208.648438 368.417969 208.171875 368.894531 C 207.695312 369.371094 207.195312 369.820312 206.675781 370.25 C 206.15625 370.675781 205.617188 371.078125 205.058594 371.449219 C 204.496094 371.824219 203.921875 372.171875 203.328125 372.488281 C 202.734375 372.804688 202.125 373.09375 201.503906 373.351562 C 200.882812 373.609375 200.25 373.835938 199.605469 374.03125 C 198.960938 374.226562 198.308594 374.390625 197.648438 374.523438 C 196.988281 374.65625 196.324219 374.753906 195.652344 374.820312 C 194.984375 374.886719 194.3125 374.921875 193.640625 374.921875 Z M 172.726562 354.847656 C 172.757812 355.394531 172.839844 355.9375 172.976562 356.472656 C 173.109375 357.007812 173.292969 357.523438 173.523438 358.023438 C 173.753906 358.523438 174.03125 358.996094 174.355469 359.445312 C 174.675781 359.894531 175.035156 360.304688 175.433594 360.683594 C 175.835938 361.066406 176.265625 361.402344 176.730469 361.699219 C 177.195312 362 177.679688 362.25 178.191406 362.457031 C 178.703125 362.660156 179.230469 362.816406 179.769531 362.921875 C 180.3125 363.027344 180.855469 363.082031 181.40625 363.085938 L 193.609375 363.085938 C 194.160156 363.082031 194.703125 363.027344 195.246094 362.921875 C 195.785156 362.816406 196.3125 362.660156 196.824219 362.457031 C 197.335938 362.25 197.820312 362 198.285156 361.699219 C 198.75 361.402344 199.179688 361.066406 199.582031 360.683594 C 199.980469 360.304688 200.339844 359.894531 200.664062 359.445312 C 200.984375 358.996094 201.261719 358.523438 201.492188 358.023438 C 201.722656 357.523438 201.90625 357.007812 202.039062 356.472656 C 202.175781 355.9375 202.257812 355.394531 202.289062 354.847656 Z M 172.726562 354.847656 " fill-opacity="1" fill-rule="nonzero"/></svg>