<?xml version="1.0" encoding="utf-8"?>
<!-- Generator: Adobe Illustrator 25.0.0, SVG Export Plug-In . SVG Version: 6.00 Build 0)  -->
<svg version="1.1" id="Capa_1" xmlns="http://www.w3.org/2000/svg" xmlns:xlink="http://www.w3.org/1999/xlink" x="0px" y="0px"
	 viewBox="0 0 17 17" style="enable-background:new 0 0 17 17;" xml:space="preserve">
<style type="text/css">
	.st0{fill:#FFFFFF;}
</style>
<g>
	<path class="st0" d="M8,0C8.3,0,8.7,0,9,0c0.1,0,0.2,0,0.3,0c1.7,0.2,3.2,0.8,4.5,1.9c1.6,1.3,2.6,3,3,5.1C16.9,7.3,17,7.7,17,8
		c0,0.4,0,0.7,0,1.1c0,0.2,0,0.4-0.1,0.6c-0.3,2-1.1,3.7-2.6,5.1c-2.2,2-4.7,2.7-7.6,2.1c-2.1-0.4-3.8-1.5-5-3.2
		c-1.4-1.9-1.9-4-1.6-6.3c0.2-1.9,1-3.5,2.4-4.8C3.7,1.3,5.2,0.4,7,0.1C7.3,0.1,7.7,0,8,0z M14.7,12.5c1.7-2.5,1.8-6.7-1.2-9.5
		c-3-2.7-7.6-2.6-10.5,0.4c-2.7,2.9-2.4,6.8-0.8,9.1c0.2-0.9,0.6-1.8,1.2-2.5C4,9.2,4.7,8.6,5.6,8.2C4.2,6.4,4.7,4.1,6.1,3
		c1.3-1.1,3.3-1.2,4.7-0.1c1.3,1,2.1,3.3,0.6,5.2C13.2,9.1,14.3,10.6,14.7,12.5z M8.5,15.9c0.1,0,0.2,0,0.3,0c0.1,0,0.2,0,0.3,0
		c1.8-0.1,3.3-0.9,4.6-2.1c0.1-0.1,0.1-0.2,0.1-0.2c-0.2-2.1-1.2-3.6-3-4.6c-0.1-0.1-0.2-0.1-0.3,0C9.1,9.8,7.8,9.8,6.6,9
		C6.5,8.9,6.4,8.9,6.3,9c-1.9,0.9-2.9,2.5-3.1,4.6c0,0.1,0,0.2,0.1,0.2C4.7,15.2,6.5,15.9,8.5,15.9z M5.8,5.8c0,1.5,1.2,2.7,2.6,2.7
		c1.5,0,2.7-1.2,2.7-2.7c0-1.5-1.2-2.7-2.6-2.7C7,3.2,5.9,4.4,5.8,5.8z"/>
</g>
</svg>
