<svg id="SvgjsSvg1001" width="288" height="288" xmlns="http://www.w3.org/2000/svg" version="1.1" xmlns:xlink="http://www.w3.org/1999/xlink" xmlns:svgjs="http://svgjs.com/svgjs"><defs id="SvgjsDefs1002"></defs><g id="SvgjsG1008" transform="matrix(1,0,0,1,0,0)"><svg xmlns="http://www.w3.org/2000/svg" viewBox="0 0 24 24" width="288" height="288"><path fill="#ffffff" fill-rule="evenodd" d="M3 13h12v-2H3v2Z" clip-rule="evenodd" class="svgShape color000000-0 selectable"></path><path fill="#ffffff" fill-rule="evenodd" d="m5.793 7.793-3.5 3.5a1 1 0 0 0 0 1.414l3.5 3.5 1.414-1.414L4.414 12l2.793-2.793-1.414-1.414zM8 4a1 1 0 0 1 1-1h12a1 1 0 0 1 1 1v16a1 1 0 0 1-1 1H9a1 1 0 0 1-1-1v-3h2v2h10V5H10v2H8V4z" clip-rule="evenodd" class="svgShape color000000-1 selectable"></path></svg></g></svg>