<?xml version="1.0" encoding="utf-8"?>
<!-- Generator: Adobe Illustrator 25.0.0, SVG Export Plug-In . SVG Version: 6.00 Build 0)  -->
<svg version="1.1" id="Capa_1" xmlns="http://www.w3.org/2000/svg" xmlns:xlink="http://www.w3.org/1999/xlink" x="0px" y="0px"
	 viewBox="0 0 17 17" style="enable-background:new 0 0 17 17;" xml:space="preserve">
<style type="text/css">
	.st0{fill:#FFFFFF;}
</style>
<g>
	<path class="st0" d="M14.2,0c1.2,0,2.2,0.7,2.6,1.7c0.4,1,0.2,2-0.6,2.8c-2.7,2.7-5.3,5.3-8,8c-0.1,0.1-0.3,0.3-0.5,0.3
		c-1.1,0.3-2.2,0.6-3.2,0.8c-0.7,0.2-1.2-0.4-1.1-1.1c0.3-1.1,0.5-2.2,0.8-3.3c0-0.2,0.2-0.4,0.3-0.5c2.7-2.7,5.3-5.3,8-8
		C13,0.3,13.6,0,14.2,0z M11.7,3.9c-0.1,0.1-0.1,0.2-0.1,0.2C9.7,5.9,7.9,7.8,6.1,9.6C5.9,9.8,5.8,10,5.7,10.2
		c-0.1,0.5-0.2,0.9-0.3,1.4c0.1,0,0.1,0,0.1,0c0.5-0.1,1-0.2,1.4-0.4c0.1,0,0.3-0.1,0.4-0.2c1.9-1.8,3.7-3.7,5.6-5.6
		c0,0,0.1-0.1,0.2-0.1C12.6,4.9,12.2,4.4,11.7,3.9z M14.2,4.1c0.3-0.3,0.5-0.5,0.8-0.8c0.6-0.6,0.3-1.3-0.4-1.6
		c-0.3-0.1-0.5-0.1-0.7,0.1c-0.3,0.3-0.6,0.6-0.9,1C13.3,3.2,13.8,3.7,14.2,4.1z"/>
	<path class="st0" d="M7.2,17c-1.5,0-3.1,0-4.6,0c-1.3,0-2.3-0.9-2.5-2.1c0-0.2,0-0.3,0-0.5c0-3,0-6.1,0-9.1c0-1.5,1.1-2.6,2.6-2.6
		c1.4,0,2.7,0,4.1,0c0.6,0,1,0.5,0.9,1C7.5,4.1,7.1,4.4,6.7,4.4c-1,0-1.9,0-2.9,0c-0.4,0-0.8,0-1.2,0C2,4.4,1.7,4.7,1.7,5.3
		c0,3,0,6.1,0,9.1c0,0.6,0.3,0.9,0.9,0.9c3,0,6.1,0,9.1,0c0.6,0,0.9-0.3,0.9-0.9c0-1.4,0-2.7,0-4.1c0-0.5,0.3-0.8,0.7-0.9
		c0.5-0.1,0.9,0.3,1,0.8c0,0.3,0,0.5,0,0.8c0,1.2,0,2.3,0,3.5c0,1.3-0.9,2.3-2.1,2.5c-0.2,0-0.3,0-0.5,0C10.2,17,8.7,17,7.2,17z"/>
</g>
</svg>
