<svg xmlns="http://www.w3.org/2000/svg" xmlns:xlink="http://www.w3.org/1999/xlink" width="500" zoomAndPan="magnify" viewBox="0 0 375 374.999991" height="500" preserveAspectRatio="xMidYMid meet" version="1.0"><path fill="#ffffff" d="M 351.011719 141.773438 C 351.011719 141.773438 331.871094 140.675781 331.871094 140.675781 C 329.417969 133.128906 326.34375 125.695312 322.511719 118.25 L 335.449219 104.175781 C 344.554688 94.285156 344.25 79.089844 334.742188 69.554688 L 305.433594 40.246094 C 295.949219 30.75 280.710938 30.457031 270.835938 39.539062 L 256.433594 52.28125 C 249.328125 48.667969 241.894531 45.59375 233.996094 43.066406 L 233.226562 23.960938 C 232.667969 10.523438 221.691406 0 208.25 0 C 208.25 0 166.746094 0 166.746094 0 C 153.308594 0 142.332031 10.523438 141.773438 23.988281 C 141.773438 23.988281 140.671875 43.128906 140.671875 43.128906 C 133.105469 45.59375 125.671875 48.667969 118.25 52.492188 C 118.25 52.492188 104.175781 39.550781 104.175781 39.550781 C 94.285156 30.445312 79.089844 30.761719 69.554688 40.257812 L 40.246094 69.566406 C 30.75 79.089844 30.445312 94.289062 39.539062 104.164062 L 52.28125 118.566406 C 48.65625 125.695312 45.582031 133.128906 43.066406 141.003906 L 23.960938 141.773438 C 10.523438 142.332031 0 153.308594 0 166.75 L 0 208.253906 C 0 221.691406 10.523438 232.667969 23.988281 233.226562 L 43.128906 234.328125 C 45.59375 241.894531 48.667969 249.328125 52.492188 256.75 L 39.550781 270.824219 C 30.445312 280.714844 30.75 295.910156 40.257812 305.445312 L 69.566406 334.753906 C 79.078125 344.261719 94.3125 344.554688 104.164062 335.460938 L 118.566406 322.71875 C 125.671875 326.332031 133.105469 329.40625 141.003906 331.933594 L 141.773438 351.039062 C 142.332031 364.476562 153.308594 375 166.75 375 C 166.75 375 208.253906 375 208.253906 375 C 221.691406 375 232.667969 364.476562 233.226562 351.011719 C 233.226562 351.011719 234.328125 331.871094 234.328125 331.871094 C 241.894531 329.40625 249.328125 326.332031 256.75 322.507812 L 270.824219 335.449219 C 280.726562 344.566406 295.921875 344.261719 305.445312 334.742188 L 334.753906 305.433594 C 344.25 295.910156 344.554688 280.710938 335.460938 270.835938 L 322.71875 256.433594 C 326.339844 249.21875 329.570312 241.707031 331.933594 233.996094 C 331.933594 233.996094 351.039062 233.226562 351.039062 233.226562 C 364.476562 232.667969 375 221.691406 375 208.25 L 375 166.746094 C 375 153.308594 364.476562 142.332031 351.011719 141.773438 Z M 330.921875 209.019531 C 310.742188 209.074219 307.632812 230.703125 300.429688 245.117188 C 295.542969 254.710938 296.984375 265.929688 304.101562 273.667969 C 304.101562 273.667969 317.066406 287.769531 317.066406 287.769531 L 287.757812 317.054688 L 273.667969 304.101562 C 259.34375 289.902344 241.84375 303.035156 226.574219 308.105469 C 216.34375 311.449219 209.449219 320.398438 209.019531 330.933594 L 208.253906 350 L 166.75 350.011719 L 165.980469 330.921875 C 165.550781 320.398438 158.65625 311.449219 148.414062 308.09375 C 133.121094 303.070312 115.820312 289.878906 101.332031 304.101562 C 101.332031 304.101562 87.230469 317.066406 87.230469 317.066406 L 57.945312 287.757812 L 70.898438 273.667969 C 85.097656 259.375 71.964844 241.835938 66.894531 226.574219 C 63.550781 216.34375 54.601562 209.449219 44.066406 209.019531 C 44.066406 209.019531 25 208.253906 25 208.253906 L 24.988281 166.75 C 24.988281 166.75 44.078125 165.980469 44.078125 165.980469 C 54.601562 165.550781 63.550781 158.65625 66.90625 148.414062 C 71.972656 133.195312 85.066406 115.574219 70.898438 101.332031 C 70.898438 101.332031 57.933594 87.230469 57.933594 87.230469 C 57.933594 87.230469 87.242188 57.945312 87.242188 57.945312 L 101.332031 70.898438 C 115.644531 85.101562 133.160156 71.960938 148.425781 66.894531 C 158.65625 63.550781 165.550781 54.601562 165.980469 44.066406 L 166.75 25 L 208.253906 24.988281 L 209.019531 44.078125 C 209.449219 54.601562 216.34375 63.550781 226.585938 66.90625 C 241.824219 71.984375 259.394531 85.035156 273.667969 70.898438 C 273.667969 70.898438 287.769531 57.933594 287.769531 57.933594 L 317.054688 87.242188 L 304.101562 101.332031 C 296.984375 109.070312 295.542969 120.289062 300.425781 129.871094 C 307.617188 144.304688 310.78125 165.925781 330.933594 165.976562 C 330.933594 165.980469 350 166.75 350 166.75 L 350.011719 208.253906 Z M 330.921875 209.019531 " fill-opacity="1" fill-rule="nonzero"/><path fill="#ffffff" d="M 187.5 98.695312 C 138.539062 98.695312 98.695312 138.539062 98.695312 187.5 C 98.695312 236.460938 138.539062 276.304688 187.5 276.304688 C 236.460938 276.304688 276.304688 236.460938 276.304688 187.5 C 276.304688 138.539062 236.460938 98.695312 187.5 98.695312 Z M 187.5 251.304688 C 152.320312 251.304688 123.695312 222.679688 123.695312 187.5 C 123.695312 152.320312 152.320312 123.695312 187.5 123.695312 C 222.679688 123.695312 251.304688 152.320312 251.304688 187.5 C 251.304688 222.679688 222.679688 251.304688 187.5 251.304688 Z M 187.5 251.304688 " fill-opacity="1" fill-rule="nonzero"/></svg>