<svg xmlns="http://www.w3.org/2000/svg" xmlns:xlink="http://www.w3.org/1999/xlink" width="500" zoomAndPan="magnify" viewBox="0 0 375 374.999991" height="500" preserveAspectRatio="xMidYMid meet" version="1.0"><path fill="#ffffff" d="M 281.214844 339.773438 L 281.203125 339.773438 C 218.601562 339.773438 155.988281 339.972656 93.375 339.773438 C 63.09375 339.492188 35.25 313.207031 35.15625 281.203125 L 35.15625 93.726562 C 35.589844 84.714844 47.378906 78.65625 54.550781 84.867188 C 56.519531 86.578125 57.878906 88.945312 58.382812 91.511719 C 58.570312 92.484375 58.546875 92.730469 58.59375 93.726562 C 58.59375 156.363281 58.007812 219 58.59375 281.625 C 58.875 299.753906 74.566406 316.160156 93.515625 316.335938 C 140.460938 316.488281 187.394531 316.335938 234.339844 316.335938 C 234.117188 316.054688 233.90625 315.761719 233.695312 315.457031 C 226.511719 305.4375 222.65625 293.367188 222.621094 281.203125 L 222.621094 58.570312 L 46.875 58.570312 C 46.875 58.570312 35.578125 55.992188 35.167969 47.414062 C 34.875 41.132812 40.359375 35.449219 46.875 35.144531 L 234.339844 35.144531 C 240.632812 35.425781 245.753906 40.417969 246.058594 46.851562 C 246.058594 125.109375 245.332031 203.378906 246.058594 281.625 C 246.339844 299.554688 261.773438 315.867188 280.5 316.335938 C 281.425781 316.230469 281.144531 316.394531 283.253906 316.277344 C 300.855469 315.222656 316.300781 299.542969 316.359375 281.167969 L 316.359375 175.746094 L 281.203125 175.746094 C 281.203125 175.746094 275.53125 175.125 272.613281 171.996094 C 267.023438 165.960938 270.292969 153.820312 279.457031 152.4375 C 280.230469 152.320312 280.429688 152.332031 281.203125 152.308594 L 328.078125 152.308594 C 328.359375 152.320312 328.652344 152.332031 328.945312 152.34375 C 331.628906 152.636719 332.050781 152.929688 333.152344 153.46875 C 337.101562 155.367188 339.621094 159.597656 339.785156 164.027344 C 339.785156 203.203125 339.914062 242.390625 339.785156 281.566406 C 339.503906 312.082031 312.773438 339.667969 281.226562 339.773438 Z M 164.039062 269.472656 L 117.175781 269.472656 C 108.058594 269.296875 101.929688 257.144531 108.492188 249.890625 C 110.671875 247.476562 113.859375 246.105469 117.175781 246.035156 L 164.039062 246.035156 C 164.191406 246.046875 164.355469 246.046875 164.507812 246.046875 C 174.738281 246.65625 179.929688 262.722656 169.417969 268.160156 C 167.765625 269.015625 165.9375 269.4375 164.039062 269.472656 Z M 187.476562 222.609375 L 93.738281 222.609375 C 91.054688 222.527344 90.164062 222.175781 88.652344 221.449219 C 81.46875 217.980469 79.945312 206.308594 86.964844 201.339844 C 88.394531 200.320312 90.046875 199.628906 91.78125 199.335938 C 92.425781 199.230469 93.082031 199.195312 93.738281 199.171875 L 187.476562 199.171875 C 187.6875 199.183594 187.910156 199.183594 188.132812 199.195312 C 196.757812 199.921875 202.699219 211.429688 196.207031 218.695312 C 194.003906 221.15625 191.765625 222.492188 187.476562 222.609375 Z M 187.476562 175.746094 L 93.738281 175.746094 C 84.773438 175.488281 78.363281 163.640625 85.007812 156.210938 C 87.199219 153.75 89.449219 152.425781 93.738281 152.308594 L 187.476562 152.308594 C 187.6875 152.308594 187.910156 152.320312 188.132812 152.320312 C 196.792969 153.058594 202.511719 164.777344 196.207031 171.832031 C 194.003906 174.292969 191.765625 175.617188 187.476562 175.746094 Z M 187.476562 128.871094 L 93.738281 128.871094 C 84.796875 128.625 78.410156 116.71875 85.007812 109.347656 C 87.199219 106.886719 89.449219 105.5625 93.738281 105.445312 L 187.476562 105.445312 C 187.6875 105.445312 187.910156 105.457031 188.132812 105.457031 C 190.816406 105.679688 191.671875 106.089844 193.136719 106.898438 C 199.886719 110.636719 201.128906 121.839844 194.25 126.714844 C 192.820312 127.722656 191.167969 128.414062 189.433594 128.707031 C 188.789062 128.8125 188.132812 128.859375 187.476562 128.871094 Z M 187.476562 128.871094 " fill-opacity="1" fill-rule="nonzero"/></svg>